<svg width="193" height="33" viewBox="0 0 193 33" fill="none" xmlns="http://www.w3.org/2000/svg">
<path d="M45.8 24.192C45.368 24.192 45.016 24.088 44.744 23.88C44.488 23.672 44.28 23.344 44.12 22.896L39.104 8.712C38.928 8.2 38.96 7.768 39.2 7.416C39.456 7.064 39.88 6.888 40.472 6.888C40.904 6.888 41.24 6.992 41.48 7.2C41.72 7.392 41.912 7.704 42.056 8.136L46.376 20.952H45.416L49.928 8.16C50.088 7.728 50.288 7.408 50.528 7.2C50.768 6.992 51.08 6.888 51.464 6.888C51.848 6.888 52.152 6.992 52.376 7.2C52.6 7.408 52.792 7.736 52.952 8.184L57.32 20.952H56.48L60.872 8.136C61.016 7.72 61.208 7.408 61.448 7.2C61.688 6.992 62.016 6.888 62.432 6.888C62.944 6.888 63.32 7.064 63.56 7.416C63.8 7.768 63.832 8.2 63.656 8.712L58.592 22.92C58.432 23.352 58.224 23.672 57.968 23.88C57.712 24.088 57.368 24.192 56.936 24.192C56.504 24.192 56.16 24.088 55.904 23.88C55.648 23.672 55.44 23.344 55.28 22.896L51.104 10.992H51.656L47.432 22.92C47.272 23.352 47.064 23.672 46.808 23.88C46.568 24.088 46.232 24.192 45.8 24.192ZM79.7289 24.24C78.0969 24.24 76.6649 23.88 75.4329 23.16C74.2169 22.44 73.2729 21.432 72.6009 20.136C71.9289 18.824 71.5929 17.288 71.5929 15.528C71.5929 14.2 71.7849 13.008 72.1689 11.952C72.5529 10.88 73.0969 9.968 73.8009 9.216C74.5209 8.448 75.3769 7.864 76.3689 7.464C77.3769 7.048 78.4969 6.84 79.7289 6.84C81.3769 6.84 82.8089 7.2 84.0249 7.92C85.2409 8.624 86.1849 9.624 86.8569 10.92C87.5289 12.216 87.8649 13.744 87.8649 15.504C87.8649 16.832 87.6729 18.032 87.2889 19.104C86.9049 20.176 86.3529 21.096 85.6329 21.864C84.9289 22.632 84.0729 23.224 83.0649 23.64C82.0729 24.04 80.9609 24.24 79.7289 24.24ZM79.7289 21.6C80.7689 21.6 81.6489 21.36 82.3689 20.88C83.1049 20.4 83.6649 19.704 84.0489 18.792C84.4489 17.88 84.6489 16.792 84.6489 15.528C84.6489 13.608 84.2169 12.12 83.3529 11.064C82.5049 10.008 81.2969 9.48 79.7289 9.48C78.7049 9.48 77.8249 9.72 77.0889 10.2C76.3529 10.664 75.7849 11.352 75.3849 12.264C75.0009 13.16 74.8089 14.248 74.8089 15.528C74.8089 17.432 75.2409 18.92 76.1049 19.992C76.9689 21.064 78.1769 21.6 79.7289 21.6ZM104.573 24.24C102.941 24.24 101.509 23.88 100.277 23.16C99.0606 22.44 98.1166 21.432 97.4446 20.136C96.7726 18.824 96.4366 17.288 96.4366 15.528C96.4366 14.2 96.6286 13.008 97.0126 11.952C97.3966 10.88 97.9406 9.968 98.6446 9.216C99.3646 8.448 100.221 7.864 101.213 7.464C102.221 7.048 103.341 6.84 104.573 6.84C106.221 6.84 107.653 7.2 108.869 7.92C110.085 8.624 111.029 9.624 111.701 10.92C112.373 12.216 112.709 13.744 112.709 15.504C112.709 16.832 112.517 18.032 112.133 19.104C111.749 20.176 111.197 21.096 110.477 21.864C109.773 22.632 108.917 23.224 107.909 23.64C106.917 24.04 105.805 24.24 104.573 24.24ZM104.573 21.6C105.613 21.6 106.493 21.36 107.213 20.88C107.949 20.4 108.509 19.704 108.893 18.792C109.293 17.88 109.493 16.792 109.493 15.528C109.493 13.608 109.061 12.12 108.197 11.064C107.349 10.008 106.141 9.48 104.573 9.48C103.549 9.48 102.669 9.72 101.933 10.2C101.197 10.664 100.629 11.352 100.229 12.264C99.8446 13.16 99.6526 14.248 99.6526 15.528C99.6526 17.432 100.085 18.92 100.949 19.992C101.813 21.064 103.021 21.6 104.573 21.6ZM123.464 24C122.936 24 122.528 23.864 122.24 23.592C121.968 23.304 121.832 22.896 121.832 22.368V8.712C121.832 8.184 121.968 7.784 122.24 7.512C122.528 7.224 122.936 7.08 123.464 7.08H128.12C130.952 7.08 133.136 7.808 134.672 9.264C136.224 10.72 137 12.808 137 15.528C137 16.888 136.8 18.096 136.4 19.152C136.016 20.192 135.44 21.072 134.672 21.792C133.92 22.512 132.992 23.064 131.888 23.448C130.8 23.816 129.544 24 128.12 24H123.464ZM124.904 21.456H127.928C128.92 21.456 129.776 21.336 130.496 21.096C131.232 20.84 131.84 20.472 132.32 19.992C132.816 19.496 133.184 18.88 133.424 18.144C133.664 17.392 133.784 16.52 133.784 15.528C133.784 13.544 133.296 12.064 132.32 11.088C131.344 10.112 129.88 9.624 127.928 9.624H124.904V21.456ZM147.65 24.192C147.154 24.192 146.77 24.056 146.498 23.784C146.242 23.496 146.114 23.104 146.114 22.608V8.472C146.114 7.96 146.242 7.568 146.498 7.296C146.77 7.024 147.154 6.888 147.65 6.888C148.146 6.888 148.522 7.024 148.778 7.296C149.05 7.568 149.186 7.96 149.186 8.472V22.608C149.186 23.104 149.058 23.496 148.802 23.784C148.546 24.056 148.162 24.192 147.65 24.192ZM160.519 24C159.991 24 159.583 23.864 159.295 23.592C159.023 23.304 158.887 22.896 158.887 22.368V8.712C158.887 8.184 159.023 7.784 159.295 7.512C159.583 7.224 159.991 7.08 160.519 7.08H169.087C169.487 7.08 169.791 7.184 169.999 7.392C170.223 7.6 170.335 7.896 170.335 8.28C170.335 8.68 170.223 8.992 169.999 9.216C169.791 9.424 169.487 9.528 169.087 9.528H161.839V14.184H168.559C168.975 14.184 169.287 14.288 169.495 14.496C169.703 14.704 169.807 15.008 169.807 15.408C169.807 15.808 169.703 16.112 169.495 16.32C169.287 16.528 168.975 16.632 168.559 16.632H161.839V21.552H169.087C169.487 21.552 169.791 21.656 169.999 21.864C170.223 22.072 170.335 22.376 170.335 22.776C170.335 23.176 170.223 23.48 169.999 23.688C169.791 23.896 169.487 24 169.087 24H160.519ZM184.805 24.24C184.101 24.24 183.397 24.184 182.693 24.072C181.989 23.976 181.325 23.824 180.701 23.616C180.077 23.392 179.517 23.12 179.021 22.8C178.733 22.608 178.533 22.376 178.421 22.104C178.309 21.832 178.269 21.568 178.301 21.312C178.349 21.04 178.453 20.808 178.613 20.616C178.789 20.408 179.005 20.28 179.261 20.232C179.517 20.184 179.797 20.256 180.101 20.448C180.805 20.864 181.549 21.168 182.333 21.36C183.117 21.552 183.941 21.648 184.805 21.648C186.069 21.648 186.989 21.44 187.565 21.024C188.141 20.592 188.429 20.04 188.429 19.368C188.429 18.808 188.221 18.368 187.805 18.048C187.405 17.728 186.709 17.464 185.717 17.256L183.077 16.704C181.557 16.384 180.421 15.848 179.669 15.096C178.933 14.328 178.565 13.32 178.565 12.072C178.565 11.288 178.725 10.576 179.045 9.936C179.365 9.296 179.813 8.744 180.389 8.28C180.981 7.816 181.677 7.464 182.477 7.224C183.293 6.968 184.189 6.84 185.165 6.84C186.125 6.84 187.037 6.96 187.901 7.2C188.765 7.44 189.541 7.792 190.229 8.256C190.485 8.432 190.653 8.648 190.733 8.904C190.829 9.16 190.853 9.416 190.805 9.672C190.757 9.912 190.645 10.12 190.469 10.296C190.293 10.472 190.069 10.576 189.797 10.608C189.541 10.64 189.245 10.56 188.909 10.368C188.317 10.032 187.717 9.792 187.109 9.648C186.501 9.504 185.845 9.432 185.141 9.432C184.405 9.432 183.773 9.536 183.245 9.744C182.717 9.952 182.309 10.248 182.021 10.632C181.749 11 181.613 11.44 181.613 11.952C181.613 12.528 181.805 12.992 182.189 13.344C182.573 13.68 183.229 13.944 184.157 14.136L186.773 14.688C188.357 15.024 189.533 15.552 190.301 16.272C191.085 16.992 191.477 17.952 191.477 19.152C191.477 19.92 191.317 20.616 190.997 21.24C190.693 21.864 190.245 22.4 189.653 22.848C189.077 23.296 188.381 23.64 187.565 23.88C186.749 24.12 185.829 24.24 184.805 24.24Z" fill="#3E3F43"/>
<path d="M0.5 3.28577H6.28571C10.4278 3.28577 13.7857 6.64363 13.7857 10.7858V14.7858H8C3.85787 14.7858 0.5 11.4279 0.5 7.28577V3.28577Z" stroke="#DAA520"/>
<path d="M16.2143 17.2142H22C26.1421 17.2142 29.5 20.5721 29.5 24.7142V28.7142H23.7143C19.5722 28.7142 16.2143 25.3564 16.2143 21.2142V17.2142Z" stroke="#DAA520"/>
<path d="M16.2143 9C16.2143 4.85787 19.5722 1.5 23.7143 1.5H27.7143V7.28571C27.7143 11.4278 24.3564 14.7857 20.2143 14.7857H16.2143V9Z" stroke="#DAA520"/>
<path d="M2.28571 24.7142C2.28571 20.5721 5.64357 17.2142 9.78571 17.2142H13.7857V22.9999C13.7857 27.1421 10.4278 30.4999 6.28571 30.4999H2.28571V24.7142Z" stroke="#DAA520"/>
</svg>
